<svg width="48" height="48" viewBox="0 0 48 48" fill="none" xmlns="http://www.w3.org/2000/svg">
<g id="material-symbols-light:arrow-circle-up-outline">
<path id="Vector" d="M23 30.77H25.04V20.946L29.24 25.146L30.616 23.77L24.038 17.192L17.424 23.77L18.8 25.146L23 20.946V30.77ZM24.006 42C21.518 42 19.178 41.528 16.986 40.584C14.7953 39.6387 12.8893 38.356 11.268 36.736C9.64667 35.1173 8.36333 33.2133 7.418 31.024C6.47267 28.8347 6 26.4953 6 24.006C6 21.518 6.472 19.178 7.416 16.986C8.36133 14.7953 9.644 12.8893 11.264 11.268C12.8827 9.64667 14.7867 8.36333 16.976 7.418C19.1653 6.47267 21.5047 6 23.994 6C26.482 6 28.822 6.472 31.014 7.416C33.2047 8.36133 35.1107 9.644 36.732 11.264C38.3533 12.8827 39.6367 14.7867 40.582 16.976C41.5273 19.1653 42 21.5047 42 23.994C42 26.482 41.528 28.822 40.584 31.014C39.6387 33.2047 38.356 35.1107 36.736 36.732C35.1173 38.3533 33.2133 39.6367 31.024 40.582C28.8347 41.5273 26.4953 42 24.006 42ZM24 40C28.4667 40 32.25 38.45 35.35 35.35C38.45 32.25 40 28.4667 40 24C40 19.5333 38.45 15.75 35.35 12.65C32.25 9.55 28.4667 8 24 8C19.5333 8 15.75 9.55 12.65 12.65C9.55 15.75 8 19.5333 8 24C8 28.4667 9.55 32.25 12.65 35.35C15.75 38.45 19.5333 40 24 40Z" fill="#E74A3B"/>
</g>
</svg>
