<svg width="36" height="36" viewBox="0 0 36 36" fill="none" xmlns="http://www.w3.org/2000/svg">
<g id="carbon:category">
<path id="Vector" d="M30.375 24.9086V20.25C30.375 19.6533 30.138 19.081 29.716 18.659C29.294 18.2371 28.7217 18 28.125 18H19.125V13.5H21.375C21.9716 13.4994 22.5435 13.2622 22.9653 12.8403C23.3872 12.4185 23.6244 11.8466 23.625 11.25V4.5C23.6244 3.90345 23.3872 3.3315 22.9653 2.90967C22.5435 2.48784 21.9716 2.2506 21.375 2.25H14.625C14.0285 2.2506 13.4565 2.48784 13.0347 2.90967C12.6129 3.3315 12.3756 3.90345 12.375 4.5V11.25C12.3756 11.8466 12.6129 12.4185 13.0347 12.8403C13.4565 13.2622 14.0285 13.4994 14.625 13.5H16.875V18H7.87501C7.27827 18 6.70598 18.2371 6.28402 18.659C5.86206 19.081 5.62501 19.6533 5.62501 20.25V24.9098C4.56452 25.1836 3.6403 25.8348 3.02558 26.7413C2.41087 27.6478 2.14787 28.7473 2.28588 29.8339C2.42389 30.9204 2.95343 31.9193 3.77525 32.6434C4.59707 33.3674 5.65474 33.7669 6.75001 33.7669C7.84528 33.7669 8.90295 33.3674 9.72477 32.6434C10.5466 31.9193 11.0761 30.9204 11.2141 29.8339C11.3522 28.7473 11.0892 27.6478 10.4744 26.7413C9.85972 25.8348 8.9355 25.1836 7.87501 24.9098V20.25H16.875V24.9098C15.8145 25.1836 14.8903 25.8348 14.2756 26.7413C13.6609 27.6478 13.3979 28.7473 13.5359 29.8339C13.6739 30.9204 14.2034 31.9193 15.0252 32.6434C15.8471 33.3674 16.9047 33.7669 18 33.7669C19.0953 33.7669 20.153 33.3674 20.9748 32.6434C21.7966 31.9193 22.3261 30.9204 22.4641 29.8339C22.6022 28.7473 22.3392 27.6478 21.7244 26.7413C21.1097 25.8348 20.1855 25.1836 19.125 24.9098V20.25H28.125V24.9086C27.0645 25.1824 26.1403 25.8336 25.5256 26.7401C24.9109 27.6466 24.6479 28.7462 24.7859 29.8327C24.9239 30.9193 25.4534 31.9182 26.2752 32.6422C27.0971 33.3663 28.1547 33.7657 29.25 33.7657C30.3453 33.7657 31.403 33.3663 32.2248 32.6422C33.0466 31.9182 33.5761 30.9193 33.7141 29.8327C33.8522 28.7462 33.5892 27.6466 32.9744 26.7401C32.3597 25.8336 31.4355 25.1824 30.375 24.9086ZM14.625 4.5H21.375L21.3761 11.25H14.625V4.5ZM9.00001 29.25C9.00001 29.695 8.86805 30.13 8.62082 30.5C8.37358 30.87 8.02218 31.1584 7.61105 31.3287C7.19991 31.499 6.74751 31.5436 6.31106 31.4568C5.8746 31.37 5.47369 31.1557 5.15902 30.841C4.84435 30.5263 4.63006 30.1254 4.54324 29.689C4.45643 29.2525 4.50098 28.8001 4.67128 28.389C4.84158 27.9778 5.12997 27.6264 5.49998 27.3792C5.86999 27.132 6.305 27 6.75001 27C7.34656 27.0006 7.91852 27.2378 8.34034 27.6597C8.76217 28.0815 8.99942 28.6534 9.00001 29.25ZM20.25 29.25C20.25 29.695 20.1181 30.13 19.8708 30.5C19.6236 30.87 19.2722 31.1584 18.861 31.3287C18.4499 31.499 17.9975 31.5436 17.5611 31.4568C17.1246 31.37 16.7237 31.1557 16.409 30.841C16.0944 30.5263 15.8801 30.1254 15.7932 29.689C15.7064 29.2525 15.751 28.8001 15.9213 28.389C16.0916 27.9778 16.38 27.6264 16.75 27.3792C17.12 27.132 17.555 27 18 27C18.5965 27.0009 19.1683 27.2382 19.59 27.66C20.0118 28.0818 20.2491 28.6535 20.25 29.25ZM29.25 31.5C28.805 31.5 28.37 31.368 28 31.1208C27.63 30.8736 27.3416 30.5222 27.1713 30.111C27.001 29.6999 26.9564 29.2475 27.0432 28.811C27.1301 28.3746 27.3444 27.9737 27.659 27.659C27.9737 27.3443 28.3746 27.13 28.8111 27.0432C29.2475 26.9564 29.6999 27.001 30.111 27.1713C30.5222 27.3416 30.8736 27.63 31.1208 28C31.3681 28.37 31.5 28.805 31.5 29.25C31.4994 29.8466 31.2622 30.4185 30.8403 30.8403C30.4185 31.2622 29.8466 31.4994 29.25 31.5Z" fill="black"/>
</g>
</svg>
