<svg width="24" height="24" viewBox="0 0 24 24" fill="none" xmlns="http://www.w3.org/2000/svg">
<g id="download_icon">
<path id="Vector" d="M22.3125 12.75V18.75C22.3125 19.0981 22.1742 19.4319 21.9281 19.6781C21.6819 19.9242 21.3481 20.0625 21 20.0625H3C2.6519 20.0625 2.31806 19.9242 2.07192 19.6781C1.82578 19.4319 1.6875 19.0981 1.6875 18.75V12.75C1.6875 12.4019 1.82578 12.0681 2.07192 11.8219C2.31806 11.5758 2.6519 11.4375 3 11.4375H6.75C6.89918 11.4375 7.04226 11.4968 7.14775 11.6023C7.25324 11.7077 7.3125 11.8508 7.3125 12C7.3125 12.1492 7.25324 12.2923 7.14775 12.3977C7.04226 12.5032 6.89918 12.5625 6.75 12.5625H3C2.95027 12.5625 2.90258 12.5823 2.86742 12.6174C2.83225 12.6526 2.8125 12.7003 2.8125 12.75V18.75C2.8125 18.7997 2.83225 18.8474 2.86742 18.8826C2.90258 18.9177 2.95027 18.9375 3 18.9375H21C21.0497 18.9375 21.0974 18.9177 21.1326 18.8826C21.1677 18.8474 21.1875 18.7997 21.1875 18.75V12.75C21.1875 12.7003 21.1677 12.6526 21.1326 12.6174C21.0974 12.5823 21.0497 12.5625 21 12.5625H17.25C17.1008 12.5625 16.9577 12.5032 16.8523 12.3977C16.7468 12.2923 16.6875 12.1492 16.6875 12C16.6875 11.8508 16.7468 11.7077 16.8523 11.6023C16.9577 11.4968 17.1008 11.4375 17.25 11.4375H21C21.3481 11.4375 21.6819 11.5758 21.9281 11.8219C22.1742 12.0681 22.3125 12.4019 22.3125 12.75ZM11.6025 12.3975C11.708 12.5028 11.8509 12.562 12 12.562C12.1491 12.562 12.292 12.5028 12.3975 12.3975L16.8975 7.8975C16.9969 7.79087 17.051 7.64983 17.0484 7.50411C17.0458 7.35838 16.9868 7.21934 16.8837 7.11628C16.7807 7.01322 16.6416 6.95419 16.4959 6.95162C16.3502 6.94905 16.2091 7.00314 16.1025 7.1025L12.5625 10.6416V2.25C12.5625 2.10082 12.5032 1.95774 12.3977 1.85225C12.2923 1.74676 12.1492 1.6875 12 1.6875C11.8508 1.6875 11.7077 1.74676 11.6023 1.85225C11.4968 1.95774 11.4375 2.10082 11.4375 2.25V10.6416L7.8975 7.1025C7.79087 7.00314 7.64983 6.94905 7.50411 6.95162C7.35838 6.95419 7.21934 7.01322 7.11628 7.11628C7.01322 7.21934 6.95419 7.35838 6.95162 7.50411C6.94905 7.64983 7.00314 7.79087 7.1025 7.8975L11.6025 12.3975ZM18.5625 15.75C18.5625 15.5646 18.5075 15.3833 18.4045 15.2292C18.3015 15.075 18.1551 14.9548 17.9838 14.8839C17.8125 14.8129 17.624 14.7943 17.4421 14.8305C17.2602 14.8667 17.0932 14.956 16.9621 15.0871C16.831 15.2182 16.7417 15.3852 16.7055 15.5671C16.6693 15.749 16.6879 15.9375 16.7589 16.1088C16.8298 16.2801 16.95 16.4265 17.1042 16.5295C17.2583 16.6325 17.4396 16.6875 17.625 16.6875C17.8736 16.6875 18.1121 16.5887 18.2879 16.4129C18.4637 16.2371 18.5625 15.9986 18.5625 15.75Z" fill="black"/>
</g>
</svg>
