<svg width="48" height="48" viewBox="0 0 48 48" fill="none" xmlns="http://www.w3.org/2000/svg">
<g id="healthicons:money-bag-outline">
<g id="Group">
<path id="Vector" fill-rule="evenodd" clip-rule="evenodd" d="M28.772 24.667C28.4962 23.887 27.9853 23.2117 27.3098 22.7341C26.6343 22.2565 25.8273 22 25 22V21H23V22C21.9391 22 20.9217 22.4214 20.1716 23.1716C19.4214 23.9217 19 24.9391 19 26C19 27.0609 19.4214 28.0783 20.1716 28.8284C20.9217 29.5786 21.9391 30 23 30V34C22.13 34 21.389 33.445 21.113 32.667C21.0721 32.5397 21.006 32.4219 20.9187 32.3206C20.8315 32.2193 20.7248 32.1365 20.605 32.0772C20.4851 32.0178 20.3546 31.9831 20.2212 31.9751C20.0877 31.967 19.954 31.9858 19.8279 32.0304C19.7018 32.0749 19.586 32.1443 19.4872 32.2344C19.3884 32.3245 19.3087 32.4335 19.2527 32.5549C19.1968 32.6764 19.1658 32.8078 19.1616 32.9415C19.1573 33.0751 19.1799 33.2082 19.228 33.333C19.5038 34.113 20.0147 34.7883 20.6902 35.2659C21.3657 35.7435 22.1727 36 23 36V37H25V36C26.0609 36 27.0783 35.5786 27.8284 34.8284C28.5786 34.0783 29 33.0609 29 32C29 30.9391 28.5786 29.9217 27.8284 29.1716C27.0783 28.4214 26.0609 28 25 28V24C25.4136 23.9999 25.8171 24.128 26.1549 24.3668C26.4926 24.6055 26.7481 24.9431 26.886 25.333C26.9743 25.5831 27.1584 25.7879 27.3977 25.9023C27.5162 25.9589 27.6446 25.9917 27.7758 25.9987C27.9069 26.0056 28.0382 25.9867 28.162 25.943C28.2858 25.8993 28.3998 25.8316 28.4975 25.7438C28.5952 25.656 28.6746 25.5498 28.7313 25.4313C28.7879 25.3128 28.8207 25.1844 28.8277 25.0532C28.8346 24.9221 28.8157 24.7908 28.772 24.667ZM23 24C22.4696 24 21.9609 24.2107 21.5858 24.5858C21.2107 24.9609 21 25.4696 21 26C21 26.5304 21.2107 27.0391 21.5858 27.4142C21.9609 27.7893 22.4696 28 23 28V24ZM25 34C25.5304 34 26.0391 33.7893 26.4142 33.4142C26.7893 33.0391 27 32.5304 27 32C27 31.4696 26.7893 30.9609 26.4142 30.5858C26.0391 30.2107 25.5304 30 25 30V34Z" fill="black"/>
<path id="Vector_2" fill-rule="evenodd" clip-rule="evenodd" d="M13.153 8.621C15.607 7.42 19.633 6 24.039 6C28.353 6 32.273 7.361 34.714 8.546L34.852 8.613C35.588 8.977 36.182 9.321 36.6 9.6L32.906 15C41.422 23.706 48 41.997 24.039 41.997C0.0780106 41.997 6.47901 24.038 15.069 15L11.399 9.6C11.682 9.415 12.041 9.2 12.469 8.972C12.681 8.858 12.909 8.74 13.153 8.621ZM30.532 14.929L33.489 10.606C30.739 10.804 27.467 11.45 24.317 12.362C22.067 13.012 19.567 12.913 17.252 12.486C16.6686 12.3778 16.0893 12.2491 15.515 12.1L17.435 14.927C21.55 16.392 26.416 16.392 30.532 14.929ZM16.28 16.63C21.095 18.49 26.882 18.49 31.697 16.628C33.7069 18.7467 35.3882 21.1544 36.685 23.771C38.037 26.529 38.773 29.286 38.653 31.662C38.537 33.955 37.635 35.914 35.575 37.37C33.428 38.887 29.817 39.997 24.038 39.997C18.253 39.997 14.625 38.906 12.458 37.406C10.383 35.969 9.47201 34.036 9.34301 31.774C9.20801 29.424 9.92801 26.681 11.275 23.904C12.56 21.256 14.353 18.707 16.28 16.63ZM15.13 9.916C15.93 10.154 16.766 10.361 17.614 10.518C19.764 10.914 21.92 10.972 23.76 10.439C25.9042 9.81434 28.0851 9.32307 30.29 8.968C28.45 8.414 26.298 8 24.038 8C20.593 8 17.38 8.961 15.13 9.916Z" fill="black"/>
</g>
</g>
</svg>
