<svg width="36" height="36" viewBox="0 0 36 36" fill="none" xmlns="http://www.w3.org/2000/svg">
<g id="solar:wallet-outline">
<path id="Vector" d="M28.5 18C28.5 18.3978 28.342 18.7794 28.0607 19.0607C27.7794 19.342 27.3978 19.5 27 19.5C26.6022 19.5 26.2206 19.342 25.9393 19.0607C25.658 18.7794 25.5 18.3978 25.5 18C25.5 17.6022 25.658 17.2206 25.9393 16.9393C26.2206 16.658 26.6022 16.5 27 16.5C27.3978 16.5 27.7794 16.658 28.0607 16.9393C28.342 17.2206 28.5 17.6022 28.5 18Z" fill="black"/>
<path id="Vector_2" fill-rule="evenodd" clip-rule="evenodd" d="M14.916 4.875H19.584C22.341 4.875 24.525 4.875 26.2335 5.1045C27.9915 5.3415 29.415 5.8395 30.5385 6.9615C31.9245 8.349 32.367 10.206 32.5275 12.6165C33.393 12.996 34.047 13.8015 34.1175 14.8215C34.125 14.913 34.125 15.0105 34.125 15.1005V20.8995C34.125 20.9895 34.125 21.087 34.119 21.177C34.047 22.197 33.393 23.004 32.5275 23.385C32.367 25.794 31.9245 27.651 30.5385 29.0385C29.415 30.1605 27.9915 30.6585 26.2335 30.8955C24.5235 31.125 22.341 31.125 19.584 31.125H14.916C12.159 31.125 9.975 31.125 8.2665 30.8955C6.5085 30.6585 5.085 30.1605 3.9615 29.0385C2.8395 27.915 2.3415 26.4915 2.1045 24.7335C1.875 23.0235 1.875 20.841 1.875 18.084V17.916C1.875 15.159 1.875 12.975 2.1045 11.2665C2.3415 9.5085 2.8395 8.085 3.9615 6.9615C5.085 5.8395 6.5085 5.3415 8.2665 5.1045C9.9765 4.875 12.159 4.875 14.916 4.875ZM30.252 23.625H27.345C24.1275 23.625 21.3735 21.183 21.3735 18C21.3735 14.817 24.1275 12.375 27.3435 12.375H30.2505C30.0795 10.3635 29.694 9.3 28.9455 8.553C28.311 7.9185 27.441 7.5375 25.932 7.335C24.3915 7.128 22.359 7.125 19.4985 7.125H14.9985C12.138 7.125 10.107 7.128 8.5635 7.335C7.056 7.5375 6.186 7.9185 5.5515 8.553C4.917 9.1875 4.536 10.0575 4.3335 11.5665C4.1265 13.1085 4.1235 15.1395 4.1235 18C4.1235 20.8605 4.1265 22.893 4.3335 24.435C4.536 25.9425 4.917 26.8125 5.5515 27.447C6.186 28.0815 7.056 28.4625 8.565 28.665C10.107 28.872 12.138 28.875 14.9985 28.875H19.4985C22.359 28.875 24.3915 28.872 25.9335 28.665C27.441 28.4625 28.311 28.0815 28.9455 27.447C29.694 26.7 30.081 25.638 30.252 23.625ZM7.875 12C7.875 11.7016 7.99353 11.4155 8.2045 11.2045C8.41548 10.9935 8.70163 10.875 9 10.875H15C15.2984 10.875 15.5845 10.9935 15.7955 11.2045C16.0065 11.4155 16.125 11.7016 16.125 12C16.125 12.2984 16.0065 12.5845 15.7955 12.7955C15.5845 13.0065 15.2984 13.125 15 13.125H9C8.70163 13.125 8.41548 13.0065 8.2045 12.7955C7.99353 12.5845 7.875 12.2984 7.875 12ZM31.386 14.625H27.345C25.209 14.625 23.6235 16.2135 23.6235 18C23.6235 19.7865 25.209 21.375 27.3435 21.375H31.4205C31.7295 21.3555 31.863 21.147 31.8735 21.021V14.979C31.863 14.853 31.7295 14.6445 31.4205 14.6265L31.386 14.625Z" fill="black"/>
</g>
</svg>
