<svg width="16" height="16" viewBox="0 0 16 16" fill="none" xmlns="http://www.w3.org/2000/svg">
<g id="fluent:chevron-up-down-16-regular">
<path id="Vector" d="M4.146 6.35404C4.19245 6.4006 4.24762 6.43755 4.30837 6.46275C4.36911 6.48796 4.43423 6.50093 4.5 6.50093C4.56577 6.50093 4.63089 6.48796 4.69163 6.46275C4.75238 6.43755 4.80756 6.4006 4.854 6.35404L8 3.20704L11.146 6.35404C11.1925 6.40053 11.2477 6.4374 11.3084 6.46256C11.3692 6.48772 11.4343 6.50067 11.5 6.50067C11.5657 6.50067 11.6308 6.48772 11.6916 6.46256C11.7523 6.4374 11.8075 6.40053 11.854 6.35404C11.9005 6.30755 11.9374 6.25236 11.9625 6.19162C11.9877 6.13088 12.0006 6.06578 12.0006 6.00004C12.0006 5.9343 11.9877 5.8692 11.9625 5.80846C11.9374 5.74772 11.9005 5.69253 11.854 5.64604L8.354 2.14604C8.30756 2.09948 8.25238 2.06253 8.19163 2.03733C8.13089 2.01212 8.06577 1.99915 8 1.99915C7.93423 1.99915 7.86911 2.01212 7.80837 2.03733C7.74762 2.06253 7.69245 2.09948 7.646 2.14604L4.146 5.64604C4.09944 5.69248 4.06249 5.74766 4.03729 5.80841C4.01208 5.86915 3.99911 5.93427 3.99911 6.00004C3.99911 6.06581 4.01208 6.13093 4.03729 6.19167C4.06249 6.25242 4.09944 6.30759 4.146 6.35404ZM4.146 9.64604C4.19245 9.59948 4.24762 9.56253 4.30837 9.53733C4.36911 9.51212 4.43423 9.49915 4.5 9.49915C4.56577 9.49915 4.63089 9.51212 4.69163 9.53733C4.75238 9.56253 4.80756 9.59948 4.854 9.64604L8 12.793L11.146 9.64604C11.2399 9.55215 11.3672 9.49941 11.5 9.49941C11.6328 9.49941 11.7601 9.55215 11.854 9.64604C11.9479 9.73993 12.0006 9.86726 12.0006 10C12.0006 10.1328 11.9479 10.2602 11.854 10.354L8.354 13.854C8.30756 13.9006 8.25238 13.9375 8.19163 13.9628C8.13089 13.988 8.06577 14.0009 8 14.0009C7.93423 14.0009 7.86911 13.988 7.80837 13.9628C7.74762 13.9375 7.69245 13.9006 7.646 13.854L4.146 10.354C4.09944 10.3076 4.06249 10.2524 4.03729 10.1917C4.01208 10.1309 3.99911 10.0658 3.99911 10C3.99911 9.93427 4.01208 9.86915 4.03729 9.80841C4.06249 9.74766 4.09944 9.69248 4.146 9.64604Z" fill="#404040"/>
</g>
</svg>
