<svg width="24" height="24" viewBox="0 0 24 24" fill="none" xmlns="http://www.w3.org/2000/svg">
<g id="majesticons:door-exit-line">
<path id="Vector" d="M16 4.00006H19C19.5304 4.00006 20.0391 4.21077 20.4142 4.58585C20.7893 4.96092 21 5.46963 21 6.00006V7.00006M16 20.0001H19C19.5304 20.0001 20.0391 19.7893 20.4142 19.4143C20.7893 19.0392 21 18.5305 21 18.0001V17.0001M16.001 12.0001H21.001M21.001 12.0001L19.001 10.0001M21.001 12.0001L19.001 14.0001M4.425 19.4281L10.425 21.2281C10.7237 21.3177 11.0392 21.3363 11.3463 21.2823C11.6535 21.2283 11.9437 21.1032 12.1939 20.917C12.4441 20.7309 12.6473 20.4888 12.7872 20.2101C12.9272 19.9315 13.0001 19.6239 13 19.3121V4.68806C13.0001 4.37621 12.9272 4.06867 12.7872 3.78999C12.6473 3.51132 12.4441 3.26923 12.1939 3.08307C11.9437 2.89691 11.6535 2.77184 11.3463 2.71784C11.0392 2.66384 10.7237 2.6824 10.425 2.77206L4.425 4.57206C4.01302 4.69573 3.65189 4.94892 3.39519 5.29406C3.13849 5.63921 2.99991 6.05792 3 6.48806V17.5121C2.99991 17.9422 3.13849 18.3609 3.39519 18.7061C3.65189 19.0512 4.01302 19.3044 4.425 19.4281Z" stroke="black" stroke-width="2" stroke-linecap="round" stroke-linejoin="round"/>
</g>
</svg>
