<svg width="110" height="58" viewBox="0 0 110 58" fill="none" xmlns="http://www.w3.org/2000/svg">
<path d="M70.0696 10.1611L89.7658 13.6341L97.385 25.1318L93.0438 49.752L64.4844 44.7162L70.0696 10.1611Z" fill="white"/>
<path d="M98.4921 24.7882L89.9749 12.6245C89.9184 12.5438 89.8465 12.475 89.7633 12.4222C89.6802 12.3693 89.5875 12.3333 89.4905 12.3163L71.7639 9.1906C71.1762 9.08698 70.5715 9.22106 70.0827 9.56333C69.5938 9.9056 69.261 10.428 69.1574 11.0157L63.427 43.5144C63.3234 44.102 63.4574 44.7068 63.7997 45.1956C64.142 45.6844 64.6644 46.0173 65.2521 46.1209L91.8419 50.8094C92.4296 50.913 93.0343 50.7789 93.5232 50.4367C94.012 50.0944 94.3448 49.572 94.4484 48.9843L98.616 25.3489C98.6332 25.2519 98.6311 25.1524 98.6098 25.0562C98.5886 24.96 98.5486 24.869 98.4921 24.7882ZM89.7846 14.967L96.2239 24.1655L88.4058 22.787L89.7846 14.967ZM92.1024 49.3322L65.5126 44.6437C65.3167 44.6091 65.1425 44.4982 65.0284 44.3353C64.9144 44.1723 64.8697 43.9707 64.9042 43.7748L70.6346 11.2762C70.6691 11.0803 70.7801 10.9061 70.943 10.7921C71.106 10.678 71.3075 10.6333 71.5034 10.6678L88.4914 13.6632L86.7983 23.2651C86.7638 23.461 86.8085 23.6626 86.9225 23.8255C87.0366 23.9885 87.2108 24.0994 87.4067 24.134L97.0085 25.827L92.9712 48.7238C92.9367 48.9197 92.8257 49.0939 92.6628 49.2079C92.4999 49.322 92.2983 49.3667 92.1024 49.3322ZM88.1899 32.6493C88.1554 32.8452 88.0444 33.0194 87.8815 33.1335C87.7185 33.2476 87.5169 33.2922 87.3211 33.2577L75.5034 31.1739C75.3075 31.1394 75.1333 31.0284 75.0192 30.8655C74.9051 30.7026 74.8604 30.501 74.895 30.3051C74.9295 30.1092 75.0405 29.935 75.2034 29.821C75.3664 29.7069 75.5679 29.6622 75.7638 29.6967L87.5815 31.7805C87.7774 31.815 87.9516 31.926 88.0657 32.0889C88.1797 32.2519 88.2244 32.4534 88.1899 32.6493ZM87.148 38.5582C87.1135 38.7541 87.0025 38.9282 86.8396 39.0423C86.6766 39.1564 86.4751 39.2011 86.2792 39.1666L74.4615 37.0828C74.2656 37.0482 74.0914 36.9373 73.9773 36.7744C73.8632 36.6114 73.8186 36.4098 73.8531 36.2139C73.8876 36.018 73.9986 35.8439 74.1615 35.7298C74.3245 35.6157 74.526 35.571 74.7219 35.6056L86.5396 37.6893C86.7355 37.7239 86.9097 37.8348 87.0238 37.9978C87.1379 38.1607 87.1825 38.3623 87.148 38.5582Z" fill="black"/>
<path d="M41.3029 9.5H60.8029L68.3029 19L69.3029 24L71.3029 25V37L68.3029 39.5V48H41.3029L40.3029 38L38.3029 31L40.3029 25L41.3029 9.5Z" fill="white"/>
<path d="M70.634 23.1753H69.6509V18.4324C69.6501 18.4023 69.6472 18.3722 69.6422 18.3425C69.6436 18.152 69.5755 17.9674 69.4508 17.8234L61.5599 8.80875L61.5541 8.80295C61.5068 8.7519 61.4532 8.70707 61.3946 8.66955L61.3424 8.63765C61.2923 8.60978 61.2393 8.58741 61.1844 8.57095L61.1409 8.55645C61.0806 8.54143 61.0188 8.53364 60.9567 8.53325H41.5601C40.6741 8.53325 39.9549 9.2539 39.9549 10.1384V23.1739H38.9718C37.7045 23.1739 36.6779 24.2005 36.6779 25.4678V37.3984C36.6779 38.6642 37.706 39.6923 38.9718 39.6923H39.9549V47.8587C39.9549 48.7432 40.6741 49.4638 41.5601 49.4638H68.0458C68.9303 49.4638 69.6509 48.7432 69.6509 47.8587V39.6923H70.634C71.8999 39.6923 72.9279 38.6657 72.9279 37.3984V25.4678C72.9279 24.2019 71.9013 23.1753 70.634 23.1753ZM41.5601 10.1384H60.1534V18.3512C60.1534 18.7949 60.513 19.153 60.9567 19.153H68.0472V23.1739H41.5601V10.1384ZM53.569 32.132C51.6202 31.436 50.334 30.3572 50.334 28.6534C50.334 26.6539 52.0218 25.1416 54.7696 25.1416C56.1094 25.1416 57.0649 25.4025 57.7609 25.7317L57.1693 27.853C56.4111 27.4838 55.5781 27.2938 54.7348 27.2977C53.5864 27.2977 53.0296 27.8356 53.0296 28.4272C53.0296 29.1754 53.6719 29.5046 55.2031 30.0788C57.2737 30.8444 58.2293 31.9218 58.2293 33.5748C58.2293 35.541 56.7343 37.2099 53.5168 37.2099C52.177 37.2099 50.856 36.8445 50.1948 36.4791L50.7342 34.3055C51.6447 34.7705 52.6497 35.0205 53.6719 35.0364C54.8899 35.0364 55.5337 34.5303 55.5337 33.7661C55.5337 33.0354 54.9784 32.6192 53.569 32.132ZM39.7563 31.3316C39.7563 27.3484 42.6084 25.1401 46.1551 25.1401C47.5297 25.1401 48.5723 25.417 49.0421 25.6447L48.4853 27.7486C47.7809 27.4529 47.0234 27.3048 46.2595 27.3136C44.173 27.3136 42.5388 28.5824 42.5388 31.1909C42.5388 33.5211 43.9294 35.0001 46.2769 35.0001C47.0947 35.0001 47.9647 34.8449 48.5027 34.6173L48.8869 36.7038C48.4171 36.9286 47.3035 37.2084 45.8956 37.2084C41.8428 37.2099 39.7563 34.6709 39.7563 31.3316ZM68.0458 47.4266H41.5601V39.6938H68.0458V47.4266ZM65.9027 37.0359H62.8069L59.0514 25.3141H61.9558L63.3811 30.2717C63.7799 31.6796 64.1453 33.002 64.4237 34.4622H64.4759C64.7724 33.0688 65.126 31.6882 65.5358 30.3238L67.0322 25.3155H69.8481L65.9027 37.0359Z" fill="black"/>
<path d="M9.99198 15.3706L29.6881 11.8976L40.7803 20.096L45.1215 44.7162L16.5621 49.752L9.99198 15.3706Z" fill="white"/>
<path d="M41.7031 19.3945L29.5393 10.8773C29.4586 10.8209 29.3675 10.7809 29.2713 10.7596C29.1751 10.7383 29.0757 10.7362 28.9787 10.7534L11.2521 13.8791C10.6645 13.9827 10.142 14.3155 9.79975 14.8044C9.45748 15.2932 9.3234 15.898 9.42702 16.4856L15.1574 48.9843C15.261 49.5719 15.5939 50.0944 16.0827 50.4367C16.5715 50.7789 17.1763 50.913 17.7639 50.8094L44.3537 46.1209C44.9414 46.0173 45.4639 45.6844 45.8061 45.1956C46.1484 44.7068 46.2825 44.102 46.1789 43.5144L42.0113 19.879C41.9943 19.7819 41.9583 19.6892 41.9054 19.6061C41.8525 19.523 41.7838 19.4511 41.7031 19.3945ZM30.1617 13.1437L39.3587 19.5851L31.5406 20.9637L30.1617 13.1437ZM44.0933 44.6437L17.5035 49.3322C17.3076 49.3667 17.106 49.322 16.943 49.2079C16.7801 49.0938 16.6692 48.9197 16.6346 48.7238L10.9042 16.2252C10.8697 16.0293 10.9144 15.8277 11.0285 15.6647C11.1426 15.5018 11.3167 15.3909 11.5126 15.3563L28.5005 12.3609L30.1936 21.9628C30.2281 22.1586 30.3391 22.3328 30.502 22.4469C30.665 22.561 30.8666 22.6057 31.0625 22.5711L40.6643 20.8781L44.7016 43.7748C44.7362 43.9707 44.6915 44.1723 44.5774 44.3353C44.4633 44.4982 44.2892 44.6091 44.0933 44.6437ZM34.7109 30.3051C34.7454 30.501 34.7007 30.7026 34.5866 30.8655C34.4725 31.0284 34.2984 31.1394 34.1025 31.1739L22.2848 33.2577C22.0889 33.2922 21.8873 33.2475 21.7244 33.1335C21.5614 33.0194 21.4505 32.8452 21.416 32.6493C21.3814 32.4534 21.4261 32.2518 21.5402 32.0889C21.6543 31.926 21.8284 31.815 22.0243 31.7805L33.842 29.6967C34.0379 29.6622 34.2395 29.7069 34.4024 29.821C34.5654 29.935 34.6763 30.1092 34.7109 30.3051ZM35.7528 36.2139C35.7873 36.4098 35.7426 36.6114 35.6285 36.7743C35.5144 36.9373 35.3403 37.0482 35.1444 37.0828L23.3267 39.1665C23.1308 39.2011 22.9292 39.1564 22.7663 39.0423C22.6033 38.9282 22.4924 38.7541 22.4578 38.5582C22.4233 38.3623 22.468 38.1607 22.5821 37.9978C22.6962 37.8348 22.8703 37.7239 23.0662 37.6893L34.8839 35.6056C35.0798 35.571 35.2814 35.6157 35.4443 35.7298C35.6073 35.8439 35.7182 36.018 35.7528 36.2139Z" fill="black"/>
</svg>
