<svg width="16" height="16" viewBox="0 0 16 16" fill="none" xmlns="http://www.w3.org/2000/svg">
<path d="M4.14599 6.35399C4.19244 6.40056 4.24761 6.4375 4.30836 6.46271C4.36911 6.48791 4.43423 6.50089 4.49999 6.50089C4.56576 6.50089 4.63088 6.48791 4.69163 6.46271C4.75237 6.4375 4.80755 6.40056 4.85399 6.35399L7.99999 3.20699L11.146 6.35399C11.1925 6.40048 11.2477 6.43736 11.3084 6.46252C11.3691 6.48768 11.4342 6.50063 11.5 6.50063C11.5657 6.50063 11.6308 6.48768 11.6916 6.46252C11.7523 6.43736 11.8075 6.40048 11.854 6.35399C11.9005 6.30751 11.9374 6.25232 11.9625 6.19158C11.9877 6.13084 12.0006 6.06574 12.0006 5.99999C12.0006 5.93425 11.9877 5.86915 11.9625 5.80841C11.9374 5.74767 11.9005 5.69248 11.854 5.64599L8.35399 2.14599C8.30755 2.09943 8.25237 2.06249 8.19163 2.03728C8.13088 2.01207 8.06576 1.9991 7.99999 1.9991C7.93423 1.9991 7.86911 2.01207 7.80836 2.03728C7.74761 2.06249 7.69244 2.09943 7.64599 2.14599L4.14599 5.64599C4.09943 5.69244 4.06249 5.74761 4.03728 5.80836C4.01207 5.86911 3.9991 5.93423 3.9991 5.99999C3.9991 6.06576 4.01207 6.13088 4.03728 6.19163C4.06249 6.25237 4.09943 6.30755 4.14599 6.35399ZM4.14599 9.64599C4.19244 9.59943 4.24761 9.56249 4.30836 9.53728C4.36911 9.51207 4.43423 9.4991 4.49999 9.4991C4.56576 9.4991 4.63088 9.51207 4.69163 9.53728C4.75237 9.56249 4.80755 9.59943 4.85399 9.64599L7.99999 12.793L11.146 9.64599C11.2399 9.55211 11.3672 9.49936 11.5 9.49936C11.6328 9.49936 11.7601 9.55211 11.854 9.64599C11.9479 9.73988 12.0006 9.86722 12.0006 9.99999C12.0006 10.1328 11.9479 10.2601 11.854 10.354L8.35399 13.854C8.30755 13.9006 8.25237 13.9375 8.19163 13.9627C8.13088 13.9879 8.06576 14.0009 7.99999 14.0009C7.93423 14.0009 7.86911 13.9879 7.80836 13.9627C7.74761 13.9375 7.69244 13.9006 7.64599 13.854L4.14599 10.354C4.09943 10.3075 4.06249 10.2524 4.03728 10.1916C4.01207 10.1309 3.9991 10.0658 3.9991 9.99999C3.9991 9.93423 4.01207 9.86911 4.03728 9.80836C4.06249 9.74761 4.09943 9.69244 4.14599 9.64599Z" fill="#707070"/>
</svg>
