<svg width="32" height="32" viewBox="0 0 32 32" fill="none" xmlns="http://www.w3.org/2000/svg">
<g id="material-symbols-light:refresh">
<path id="Vector" d="M16.1027 25.3332C13.4973 25.3332 11.2902 24.4296 9.48133 22.6225C7.67333 20.8145 6.76933 18.6083 6.76933 16.0038C6.76933 13.3994 7.67333 11.1923 9.48133 9.3825C11.2902 7.57184 13.4973 6.6665 16.1027 6.6665C17.6876 6.6665 19.1711 7.04295 20.5533 7.79584C21.9364 8.54873 23.0511 9.59984 23.8973 10.9492V6.6665H25.2307V13.6398H18.2573V12.3065H23.1907C22.4964 10.9776 21.5196 9.92739 20.26 9.15584C19.0022 8.38517 17.6164 7.99984 16.1027 7.99984C13.8804 7.99984 11.9916 8.77761 10.436 10.3332C8.88044 11.8887 8.10267 13.7776 8.10267 15.9998C8.10267 18.2221 8.88044 20.1109 10.436 21.6665C11.9916 23.2221 13.8804 23.9998 16.1027 23.9998C17.8138 23.9998 19.3582 23.5109 20.736 22.5332C22.1138 21.5554 23.0804 20.2665 23.636 18.6665H25.0507C24.4631 20.6629 23.3462 22.2732 21.7 23.4972C20.0538 24.7212 18.188 25.3332 16.1027 25.3332Z" fill="black"/>
</g>
</svg>
