<svg width="110" height="110" viewBox="0 0 110 110" fill="none" xmlns="http://www.w3.org/2000/svg">
<g id="clarity:avatar-solid" clip-path="url(#clip0_239_15)">
<path id="Vector" d="M93.5306 74.9222C88.6207 69.6025 82.6625 65.3571 76.0312 62.4535C69.3999 59.5498 62.2392 58.0508 55 58.0508C47.7608 58.0508 40.6001 59.5498 33.9688 62.4535C27.3375 65.3571 21.3793 69.6025 16.4694 74.9222C15.7114 75.7604 15.2874 76.8477 15.2778 77.9777V96.3111C15.2938 97.516 15.7838 98.6662 16.6416 99.5125C17.4994 100.359 18.6561 100.833 19.8611 100.833H90.1389C91.3545 100.833 92.5203 100.35 93.3798 99.4909C94.2393 98.6313 94.7222 97.4655 94.7222 96.25V77.9166C94.6979 76.8077 94.2748 75.7446 93.5306 74.9222Z" fill="black"/>
<path id="Vector_2" d="M55 51.9445C66.8128 51.9445 76.3889 42.3684 76.3889 30.5556C76.3889 18.7429 66.8128 9.16675 55 9.16675C43.1872 9.16675 33.6111 18.7429 33.6111 30.5556C33.6111 42.3684 43.1872 51.9445 55 51.9445Z" fill="black"/>
</g>
<defs>
<clipPath id="clip0_239_15">
<rect width="110" height="110" fill="white"/>
</clipPath>
</defs>
</svg>
