<svg width="18" height="18" viewBox="0 0 18 18" fill="none" xmlns="http://www.w3.org/2000/svg">
<g id="fluent-mdl2:zoom" clip-path="url(#clip0_80_8)">
<g id="Vector" filter="url(#filter0_d_80_8)">
<path d="M0 17.3848C0 17.5488 0.0498047 17.6924 0.149414 17.8154C0.249023 17.9385 0.386719 18 0.5625 18C0.714844 18 0.84668 17.9443 0.958008 17.833L7.85742 10.9424C8.41992 11.4053 9.03516 11.7598 9.70312 12.0059C10.3711 12.252 11.0742 12.375 11.8125 12.375C12.3809 12.375 12.9287 12.3018 13.4561 12.1553C13.9834 12.0088 14.4756 11.8008 14.9326 11.5312C15.3896 11.2617 15.8057 10.9395 16.1807 10.5645C16.5557 10.1895 16.8809 9.77051 17.1562 9.30762C17.4316 8.84473 17.6396 8.35254 17.7803 7.83105C17.9209 7.30957 17.9941 6.76172 18 6.1875C18 5.61914 17.9268 5.07129 17.7803 4.54395C17.6338 4.0166 17.4258 3.52441 17.1562 3.06738C16.8867 2.61035 16.5645 2.19434 16.1895 1.81934C15.8145 1.44434 15.3955 1.11914 14.9326 0.84375C14.4697 0.568359 13.9775 0.360352 13.4561 0.219727C12.9346 0.0791016 12.3867 0.00585938 11.8125 0C11.2441 0 10.6963 0.0732422 10.1689 0.219727C9.6416 0.366211 9.14941 0.574219 8.69238 0.84375C8.23535 1.11328 7.81934 1.43555 7.44434 1.81055C7.06934 2.18555 6.74414 2.60449 6.46875 3.06738C6.19336 3.53027 5.98535 4.02246 5.84473 4.54395C5.7041 5.06543 5.63086 5.61328 5.625 6.1875C5.625 6.91992 5.74805 7.62012 5.99414 8.28809C6.24023 8.95605 6.59473 9.57422 7.05762 10.1426L6.55664 10.6436C6.31055 10.8896 6.01172 11.1826 5.66016 11.5225C5.30859 11.8623 4.92773 12.2344 4.51758 12.6387C4.10742 13.043 3.69141 13.4561 3.26953 13.8779C2.84766 14.2998 2.44043 14.71 2.04785 15.1084C1.65527 15.5068 1.30664 15.8672 1.00195 16.1895C0.697266 16.5117 0.454102 16.7783 0.272461 16.9893C0.0908203 17.2002 0 17.332 0 17.3848ZM11.8125 11.25C11.1152 11.25 10.459 11.1182 9.84375 10.8545C9.22852 10.5908 8.69238 10.2275 8.23535 9.76465C7.77832 9.30176 7.41797 8.76562 7.1543 8.15625C6.89062 7.54688 6.75586 6.89062 6.75 6.1875C6.75 5.49023 6.88184 4.83398 7.14551 4.21875C7.40918 3.60352 7.77246 3.06738 8.23535 2.61035C8.69824 2.15332 9.23438 1.79297 9.84375 1.5293C10.4531 1.26562 11.1094 1.13086 11.8125 1.125C12.5098 1.125 13.166 1.25684 13.7812 1.52051C14.3965 1.78418 14.9326 2.14746 15.3896 2.61035C15.8467 3.07324 16.207 3.60938 16.4707 4.21875C16.7344 4.82812 16.8691 5.48438 16.875 6.1875C16.875 6.88477 16.7432 7.54102 16.4795 8.15625C16.2158 8.77148 15.8525 9.30762 15.3896 9.76465C14.9268 10.2217 14.3906 10.582 13.7812 10.8457C13.1719 11.1094 12.5156 11.2441 11.8125 11.25Z" fill="black"/>
</g>
</g>
<defs>
<filter id="filter0_d_80_8" x="-4" y="-4" width="26" height="26" filterUnits="userSpaceOnUse" color-interpolation-filters="sRGB">
<feFlood flood-opacity="0" result="BackgroundImageFix"/>
<feColorMatrix in="SourceAlpha" type="matrix" values="0 0 0 0 0 0 0 0 0 0 0 0 0 0 0 0 0 0 127 0" result="hardAlpha"/>
<feOffset/>
<feGaussianBlur stdDeviation="2"/>
<feComposite in2="hardAlpha" operator="out"/>
<feColorMatrix type="matrix" values="0 0 0 0 0 0 0 0 0 0 0 0 0 0 0 0 0 0 0.25 0"/>
<feBlend mode="normal" in2="BackgroundImageFix" result="effect1_dropShadow_80_8"/>
<feBlend mode="normal" in="SourceGraphic" in2="effect1_dropShadow_80_8" result="shape"/>
</filter>
<clipPath id="clip0_80_8">
<rect width="18" height="18" fill="white" transform="matrix(-1 0 0 1 18 0)"/>
</clipPath>
</defs>
</svg>
